<svg width="96" height="96" xmlns="http://www.w3.org/2000/svg" xmlns:xlink="http://www.w3.org/1999/xlink" xml:space="preserve" overflow="hidden"><g transform="translate(-123 -332)"><path d="M209.36 343.61C208.633 340.437 207.273 337.444 205.36 334.81 204.711 333.917 203.46 333.719 202.566 334.368 202.099 334.708 201.801 335.234 201.75 335.81 201.348 341.764 196.944 346.679 191.07 347.73 178.781 340.087 163.219 340.087 150.93 347.73 145.073 346.683 140.674 341.794 140.25 335.86 140.153 334.76 139.182 333.947 138.082 334.044 137.506 334.095 136.98 334.392 136.64 334.86 134.727 337.494 133.367 340.487 132.64 343.66 130.93 351 132.7 358.29 137 363 127.627 381.778 135.252 404.598 154.029 413.971 172.807 423.343 195.627 415.719 205 396.941 210.333 386.256 210.333 373.685 205 363 209.3 358.29 211.07 351 209.36 343.61ZM176.51 363.73C179.294 360.442 183.402 358.572 187.71 358.63 189.028 358.592 190.344 358.76 191.61 359.13 192.609 359.392 193.207 360.414 192.945 361.413 192.935 361.452 192.923 361.491 192.91 361.53 192.624 362.597 191.527 363.23 190.461 362.944 190.444 362.94 190.427 362.935 190.41 362.93 186.425 361.886 182.194 363.206 179.51 366.33 178.894 367.247 177.652 367.491 176.735 366.875 175.818 366.26 175.573 365.017 176.189 364.1 176.281 363.964 176.388 363.84 176.51 363.73ZM165.51 363.73C166.33 364.47 166.395 365.734 165.656 366.555 164.916 367.375 163.651 367.44 162.831 366.7 162.709 366.59 162.601 366.466 162.51 366.33 159.826 363.206 155.595 361.886 151.61 362.93 150.551 363.244 149.438 362.64 149.124 361.581 149.119 361.564 149.115 361.547 149.11 361.53 148.784 360.55 149.313 359.491 150.293 359.165 150.332 359.152 150.371 359.14 150.41 359.13 151.676 358.76 152.992 358.592 154.31 358.63 158.621 358.569 162.734 360.44 165.52 363.73ZM149 374C149 370.686 151.686 368 155 368 158.314 368 161 370.686 161 374 161 377.314 158.314 380 155 380 151.686 380 149 377.314 149 374ZM190.83 396.22C182.422 407.172 166.728 409.234 155.776 400.826 154.046 399.498 152.498 397.95 151.17 396.22 150.496 395.345 150.66 394.089 151.535 393.415 152.41 392.741 153.666 392.905 154.34 393.78 161.401 402.981 174.583 404.716 183.785 397.656 185.24 396.539 186.543 395.236 187.66 393.78 188.334 392.905 189.59 392.741 190.465 393.415 191.34 394.089 191.504 395.345 190.83 396.22ZM187 380C183.686 380 181 377.314 181 374 181 370.686 183.686 368 187 368 190.314 368 193 370.686 193 374 193 377.314 190.314 380 187 380Z"/></g></svg>