<svg width="437" height="429" xmlns="http://www.w3.org/2000/svg" xmlns:xlink="http://www.w3.org/1999/xlink" xml:space="preserve" overflow="hidden"><g transform="translate(-1017 -865)"><path d="M1019.5 1079.5C1019.5 962.416 1116.21 867.5 1235.5 867.5 1354.79 867.5 1451.5 962.416 1451.5 1079.5 1451.5 1196.58 1354.79 1291.5 1235.5 1291.5 1116.21 1291.5 1019.5 1196.58 1019.5 1079.5Z" stroke="#000000" stroke-width="4.58333" stroke-miterlimit="8" fill="#D9D9D9" fill-rule="evenodd"/><g><g><g><path d="M1200.63 1079.38C1200.63 1090.77 1191.39 1100 1180 1100 1168.61 1100 1159.38 1090.77 1159.38 1079.38 1159.38 1067.98 1168.61 1058.75 1180 1058.75 1191.39 1058.75 1200.63 1067.98 1200.63 1079.38Z"/><path d="M1301.89 1146.1C1298.88 1143.8 1294.58 1144.36 1292.27 1147.37 1268 1179 1222.68 1184.96 1191.05 1160.69 1186.05 1156.85 1181.57 1152.37 1177.73 1147.37 1175.42 1144.36 1171.1 1143.8 1168.09 1146.11 1165.08 1148.43 1164.52 1152.75 1166.83 1155.76 1195.74 1193.4 1249.69 1200.49 1287.33 1171.59 1293.28 1167.02 1298.6 1161.7 1303.17 1155.76 1305.48 1152.75 1304.92 1148.43 1301.92 1146.11 1301.91 1146.11 1301.9 1146.1 1301.89 1146.1Z"/><path d="M1264.25 1053.01C1273.48 1042.27 1288.03 1037.73 1301.72 1041.32 1305.36 1042.4 1309.19 1040.32 1310.27 1036.68 1310.28 1036.63 1310.3 1036.57 1310.32 1036.51 1311.44 1033.14 1309.62 1029.5 1306.25 1028.38 1306.12 1028.33 1305.98 1028.29 1305.85 1028.26 1301.5 1026.99 1296.97 1026.41 1292.44 1026.54 1277.63 1026.34 1263.51 1032.77 1253.94 1044.07 1251.12 1046.61 1250.9 1050.96 1253.44 1053.78 1255.98 1056.6 1260.33 1056.83 1263.15 1054.28 1263.57 1053.9 1263.94 1053.48 1264.25 1053.01Z"/><path d="M1168.38 1041.32C1182.08 1037.73 1196.62 1042.27 1205.85 1053.01 1207.97 1056.16 1212.24 1057 1215.39 1054.88 1218.54 1052.77 1219.38 1048.5 1217.27 1045.34 1216.95 1044.88 1216.58 1044.45 1216.16 1044.07 1206.59 1032.77 1192.47 1026.34 1177.66 1026.54 1173.13 1026.41 1168.61 1026.99 1164.26 1028.26 1160.82 1029.16 1158.77 1032.67 1159.67 1036.11 1159.7 1036.24 1159.74 1036.38 1159.79 1036.51 1160.77 1040.18 1164.54 1042.35 1168.21 1041.37 1168.27 1041.36 1168.32 1041.34 1168.38 1041.32Z"/><path d="M1310.63 1079.38C1310.63 1090.77 1301.39 1100 1290 1100 1278.61 1100 1269.38 1090.77 1269.38 1079.38 1269.38 1067.98 1278.61 1058.75 1290 1058.75 1301.39 1058.75 1310.63 1067.98 1310.63 1079.38Z"/><path d="M1119.84 967.45C1127.48 985.869 1143.97 999.126 1163.6 1002.62L1168.79 1003.54 1173.3 1000.76C1211.08 977.272 1258.92 977.272 1296.7 1000.76L1301.21 1003.54 1306.4 1002.62C1326.03 999.126 1342.52 985.869 1350.16 967.45 1351.57 970.886 1352.72 974.426 1353.59 978.037 1358.3 998.456 1353.59 1019.29 1341.77 1032.04L1335.27 1038.92 1339.57 1047.47C1368.4 1105.23 1344.95 1175.42 1287.2 1204.25 1229.45 1233.08 1159.26 1209.63 1130.43 1151.88 1122.39 1135.77 1118.17 1118.01 1118.13 1100 1118.09 1081.79 1122.34 1063.84 1130.53 1047.58L1134.83 1039.02 1128.33 1032.14C1116.34 1019.25 1111.8 998.559 1116.51 978.141 1117.38 974.529 1118.53 970.99 1119.95 967.553M1347.58 941.875C1346.93 941.879 1346.28 941.972 1345.65 942.15 1342.88 942.95 1340.91 945.393 1340.7 948.269 1339.24 968.668 1324.12 985.474 1303.99 989.072 1261.75 962.798 1208.25 962.798 1166.01 989.072 1145.88 985.474 1130.76 968.668 1129.3 948.269 1129.09 945.393 1127.12 942.95 1124.35 942.15 1123.72 941.972 1123.07 941.879 1122.42 941.875 1120.24 941.872 1118.19 942.906 1116.89 944.659 1110.31 953.713 1105.64 964.002 1103.14 974.909 1097.26 1000.31 1103.34 1025.37 1118.13 1041.56 1085.91 1106.11 1112.12 1184.56 1176.66 1216.77 1241.21 1248.99 1319.66 1222.78 1351.88 1158.24 1370.21 1121.5 1370.21 1078.29 1351.88 1041.56 1366.79 1025.54 1372.88 1000.31 1367 975.081 1364.5 964.174 1359.83 953.885 1353.25 944.831 1351.96 942.973 1349.84 941.867 1347.58 941.875Z"/></g></g></g></g></svg>