<?xml version="1.0" encoding="UTF-8"?>
<svg viewBox="0 0 450 116" xmlns="http://www.w3.org/2000/svg">
 <g fill="#c93" fill-rule="evenodd" stroke="#fff" stroke-miterlimit="10" stroke-width=".036">
  <path d="m223.6 103.32c-12.232 0.20007-26.206-0.24829-42.99-1.3409-16.903-1.3409-39.823-3.377-56.845-5.5622-16.982-2.2348-31.589-4.4696-44.296-7.2507v-57.857c12.469 2.2348 25.058 4.2724 38.24 5.9098 13.182 1.4899 22.326 2.7314 40.1 3.9233 17.695 1.0926 39.15 2.0872 65.276 2.9798h5.3034c26.128-0.89254 47.463-1.8872 65.237-2.9798 17.576-1.1905 26.879-2.4334 40.1-3.9233 13.142-1.6388 25.691-3.675 38.28-5.9098v57.857c-12.786 2.7811-27.354 5.0159-44.296 7.2507-17.101 2.1851-40.14 4.2227-56.884 5.5622-16.824 1.0926-30.837 1.5395-42.95 1.3409h-4.2752z"/>
  <path d="m448.9 11.024c-7.8511 1.4272-17.368 2.8286-29.144 4.3076-11.896 1.48-24.584 2.9324-40.96 4.4634-16.415 1.4532-35.012 2.8544-56.701 4.3083 6.5028 0.28551 13.958 0.90824 22.84 1.8684 8.8405 0.98609 18.517 2.1531 29.659 3.7887v21.486c8.4464-0.8045 18.716-2.05 31.246-3.4514 12.531-1.4265 26.726-3.2949 43.34-5.3197-12.728-2.3355-23.553-4.126-33.069-5.657-9.635-1.5051-17.209-2.5957-23.633-3.2697 7.6136-2.4912 15.942-5.5533 25.456-9.29 9.3964-3.7634 19.667-8.1748 30.968-13.235z"/>
  <path d="m366.74 29.942l-52.261-5.8387v9.0824c8.6442-0.38924 17.209-0.80444 26.012-1.3494 8.7234-0.57089 17.366-1.1685 26.25-1.8943z"/>
  <path d="m2.5806 11.024c7.7718 1.4272 17.368 2.8285 29.105 4.3077 11.777 1.4799 24.505 2.9323 40.961 4.4634 16.376 1.4532 34.973 2.8545 56.702 4.3084-6.5822 0.28544-13.997 0.90823-22.84 1.8684-8.882 0.98609-18.557 2.1531-29.66 3.7887v21.486c-8.4855-0.80447-18.755-2.05-31.246-3.4513-12.609-1.4265-26.686-3.2949-43.3-5.3197 12.649-2.3355 23.514-4.126 33.07-5.657 9.5958-1.5051 17.169-2.5957 23.633-3.2697-7.6925-2.4912-15.98-5.5532-25.457-9.29-9.4372-3.7634-19.708-8.1749-30.968-13.235z"/>
  <path d="m84.74 29.942l52.222-5.8387v9.0824c-8.7234-0.38924-17.169-0.80444-25.972-1.3494-8.7631-0.57089-17.408-1.1685-26.25-1.8943z"/>
 </g>
</svg>
